# xmcd CD database file
#
# Track frame offsets:
#	150
#	14025
#	24600
#	34362
#	44187
#	56775
#	66762
#	79812
#	95412
#	110187
#	121212
#	132612
#	144087
#	158862
#	172812
#	187674
#	199224
#	212787
#	225687
#	243399
#	255899
#	268499
#	279762
#	294687
#	310512
#	323487
#	337512
#
# Disc length: 4682 seconds
#
# Revision: 0
# Processed by: cddbd v1.5.2PL0 Copyright (c) Steve Scherf et al.
# Submitted via: CDex 1.78
#
DISCID=8812481b
DTITLE=Dinah Washington and Quincy Jones - The Complete Sessions CD3
DYEAR=1900
DGENRE=Jazz
TTITLE0=I'm a Fool to Want You
TTITLE1=A Stranger in Town
TTITLE2=Sometimes I'm Happy
TTITLE3=Let's Fall in Love
TTITLE4=I Just Found Out About Love
TTITLE5=When Your Lover Has Gone
TTITLE6=Tears And Laughter
TTITLE7=I Can't Face The Music (Without the Blues)
TTITLE8=Since I Fell For You
TTITLE9=Dream
TTITLE10=Such A Night
TTITLE11=Salty Papa Blues
TTITLE12=It Don't Hurt Anymore
TTITLE13=Trust in Me
TTITLE14=Tell Me Why
TTITLE15=It Isn't Fair
TTITLE16=Time Out For Tears
TTITLE17=Mad About The Boy (1961 Version)
TTITLE18=Mixed Emotions
TTITLE19=I Wanna Be Loved
TTITLE20=Make Believe Dreams
TTITLE21=If I Loved You
TTITLE22=Stormy Weather
TTITLE23=You're Crying
TTITLE24=Teach Me Tonight
TTITLE25=Invitation
TTITLE26=Mad About The Boy (1952 Version)
EXTD=
EXTT0=
EXTT1=
EXTT2=
EXTT3=
EXTT4=
EXTT5=
EXTT6=
EXTT7=
EXTT8=
EXTT9=
EXTT10=
EXTT11=
EXTT12=
EXTT13=
EXTT14=
EXTT15=
EXTT16=
EXTT17=
EXTT18=
EXTT19=
EXTT20=
EXTT21=
EXTT22=
EXTT23=
EXTT24=
EXTT25=
EXTT26=
PLAYORDER=
